<?xml version="1.0" encoding="utf-8"?>
<!-- Generator: Adobe Illustrator 27.5.0, SVG Export Plug-In . SVG Version: 6.00 Build 0)  -->
<svg version="1.1" id="Layer_1" xmlns="http://www.w3.org/2000/svg" xmlns:xlink="http://www.w3.org/1999/xlink" x="0px" y="0px"
	 viewBox="0 0 2122 2122" style="enable-background:new 0 0 2122 2122;" xml:space="preserve">
<g>
	<g>
		<g>
			<path style="fill:#9ccfd8;" d="M1298.657,572.471c3.196-3.063,153.266-236.757,153.266-236.757l-6.603-81.546L1298.657,572.471z"
				/>
		</g>
		<g>
			<polygon style="fill:#9ccfd8;" points="1488.55,867.725 1731.069,779.899 1715.73,740.624 			"/>
		</g>
		<g>
			<polygon style="fill:#9ccfd8;" points="1236.308,1469.394 1410.131,1753.011 1432.052,1682.681 			"/>
		</g>
		<g>
			<polygon style="fill:#9ccfd8;" points="659.278,681.587 517.898,483.629 505.522,536.061 			"/>
		</g>
		<g>
			<polygon style="fill:#9ccfd8;" points="1129.396,537.87 1177.51,251.351 1151.166,249.888 			"/>
		</g>
		<g>
			<polygon style="fill:#9ccfd8;" points="622.258,954.12 297.151,809.042 338.379,899.105 			"/>
		</g>
		<g>
			<path style="fill:#9ccfd8;" d="M922.676,592.715c0.139-3.395-48.308-208.154-48.308-208.154l-54.047-37.328L922.676,592.715z"/>
		</g>
		<g>
			<polygon style="fill:#9ccfd8;" points="450.367,1127.706 298.462,1124.243 304.26,1151.718 			"/>
		</g>
		<g>
			<polygon style="fill:#9ccfd8;" points="795.98,1627.368 735.678,1766.834 763.317,1771.786 			"/>
		</g>
		<g>
			<polygon style="fill:#9ccfd8;" points="654.213,1548.836 444.246,1693.435 459.406,1710.932 			"/>
		</g>
		<g>
			<polygon style="fill:#9ccfd8;" points="1426.974,1218.369 1808.35,1409.059 1826.533,1332.387 			"/>
		</g>
		<g>
			<path style="fill:#9ccfd8;" d="M1602.252,1035.007c2.807,0.776,185.403,6.925,185.403,6.925l43.865-31.183L1602.252,1035.007z"/>
		</g>
		<g>
			<polygon style="fill:#9ccfd8;" points="1050.934,1585.456 1046.545,1882.817 1086.004,1848.088 			"/>
		</g>
		<g>
			<path style="fill:#9ccfd8;" d="M1390.472,714.668c4.636-2.185,255.85-198.62,255.85-198.62l23.236-87.202L1390.472,714.668z"/>
		</g>
		<g>
			<polygon style="fill:#9ccfd8;" points="647.908,1340.371 376.772,1381.64 395.658,1428.673 			"/>
		</g>
		<g>
			<path style="fill:#9ccfd8;" d="M1421.325,1420.857c2.177,3.022,179.318,155.438,179.318,155.438l68.72,4.05L1421.325,1420.857z"
				/>
		</g>
	</g>
	<g>
		<g>
			<path style="fill:#e0def4;" d="M1233.487,467.929l-3.376-2.504l1.688,1.252l-1.74-1.179
				c3.231-5.28,84.267-194.696,126.923-294.724l-11.476-45.217l4.073-1.035l11.83,46.598l-0.279,0.653
				C1348.386,201.649,1236.562,463.794,1233.487,467.929z M1262.48,361.237l-4.057-1.1l43.888-162.364l4.056,1.1L1262.48,361.237z"
				/>
		</g>
		<g>
			<polygon style="fill:#e0def4;" points="1502.879,764.673 1500.526,761.203 1581.13,696.309 1583.767,699.585 1523.257,748.302 
				1755.189,616.976 1732.786,579.609 1714.776,594.113 1712.14,590.836 1733.911,573.311 1761.012,618.512 			"/>
		</g>
		<g>
			<path style="fill:#e0def4;" d="M1573.091,1766.967l-242.086-277.366l3.17-2.768l242.086,277.367L1573.091,1766.967z
				 M1535.096,1648.207l-132.819-103.189l2.579-3.318l132.819,103.19L1535.096,1648.207z"/>
		</g>
		<g>
			<polygon style="fill:#e0def4;" points="531.685,713.136 494.626,688.314 496.967,684.823 515.95,697.536 337.773,520.263 
				334.209,575.812 357.228,591.23 354.888,594.721 329.857,577.955 334.168,510.745 534.338,709.9 			"/>
		</g>
		<g>
			<polygon style="fill:#e0def4;" points="1032.573,460.184 1018.268,305.635 1022.456,305.249 1032.5,413.78 1032.109,130.645 
				1006.561,133.523 1006.955,137.777 1002.766,138.163 1001.995,129.803 1036.306,125.939 1036.77,459.988 			"/>
		</g>
		<g>
			<path style="fill:#e0def4;" d="M542.612,1027.274l-356.526-91.791l1.051-4.073l356.526,91.791L542.612,1027.274z
				 M397.974,1023.902l-168.146-3.983l0.099-4.204l168.145,3.983L397.974,1023.902z"/>
		</g>
		<g>
			<path style="fill:#e0def4;" d="M815.695,570.276l-50.601-80.215l3.556-2.242l33.428,52.987
				c-17.833-43.247-60.279-143.948-85.34-203.213l-60.739-28.349l22.912,36.324l-3.556,2.241l-30.55-48.429l75.176,35.084
				l0.316,0.748c15.641,36.989,93.704,221.723,94.205,225.665L815.695,570.276z"/>
		</g>
		<g>
			<path style="fill:#e0def4;" d="M221.616,1310.927l-13.472-34.155l174.28-25.446l0.608,4.164l-6.077,0.887l0.378,1.105
				L221.616,1310.927z M213.999,1280.163l10.056,25.483l136.63-46.897L213.999,1280.163z"/>
		</g>
		<g>
			<path style="fill:#e0def4;" d="M859.784,1920.905l-36.722-0.349l41.928-171.069l4.081,1.002l-1.461,5.967l1.166,0.065
				L859.784,1920.905z M828.408,1916.4l27.397,0.259l7.892-144.231L828.408,1916.4z"/>
		</g>
		<g>
			<polygon style="fill:#e0def4;" points="504.342,1911.145 480.534,1891.533 691.01,1687.101 694.073,1689.976 648.17,1743.484 
				644.976,1740.749 660.788,1722.32 486.833,1891.279 503.833,1905.281 535.467,1868.403 538.661,1871.138 			"/>
		</g>
		<g>
			<path style="fill:#e0def4;" d="M1850.91,1278.66l-352.153-107.353l1.223-4.024l352.153,107.353L1850.91,1278.66z
				 M1970.351,1261.964l-4.197-0.271l2.501-38.347l-124.977-13.83l0.46-4.18l128.976,14.273L1970.351,1261.964z"/>
		</g>
		<g>
			<path style="fill:#e0def4;" d="M1661.724,931.578v-4.204c4.676-0.029,138.359-17.903,209.039-27.433l37.264-37.289
				l-84.399,23.648l-1.134-4.048l99.846-27.976l-49.607,49.64l-0.706,0.094C1863.684,905.138,1667.583,931.578,1661.724,931.578z"/>
		</g>
		<g>
			<polygon style="fill:#e0def4;" points="1196.432,1994.788 1143.967,1654.527 1148.053,1653.582 1197.105,1811.876 
				1193.089,1813.125 1152.458,1682.005 1199.142,1984.769 1214.175,1966.229 1217.443,1968.874 			"/>
		</g>
		<g>
			<path style="fill:#e0def4;" d="M1363.46,610.969l-2.398-3.449l1.199,1.725l-1.257-1.684
				c5.774-4.698,201.521-219.079,249.666-271.893l3.105,2.833C1611.328,341.186,1368.54,607.438,1363.46,610.969z M1490.958,427.117
				l-3.457-2.394l95.757-138.273l3.457,2.395L1490.958,427.117z"/>
		</g>
		<g>
			<polygon style="fill:#e0def4;" points="375.242,1601.306 345.115,1552.118 347.637,1551.288 644.984,1453.149 646.655,1456.985 
				524.286,1524.549 522.257,1520.87 624.859,1464.22 351.471,1554.45 378.831,1599.113 			"/>
		</g>
		<g>
			<path style="fill:#e0def4;" d="M1762.621,1541.269l-0.608-0.37c-38.187-23.032-228.831-138.083-231.882-141.094l-7.889-7.781
				l147.077,62.821l-1.651,3.868l-112.289-47.96c45.062,27.638,147.573,89.614,208.193,126.18l69.449-7.593l-10.68-4.562
				l1.651-3.868l25.438,10.87L1762.621,1541.269z"/>
		</g>
	</g>
	<path style="opacity:0.1;" d="M982.372,1410.518c-40.456-27.466-99.153-30.111-137.697,1.405
		c-16.324,13.347-29.033,32.821-35.213,59.13c-9.767,41.585,2.552,75.149,25.503,98.101c8.941,8.941,19.496,16.272,30.988,21.839
		l40.026,19.389c56.086,27.168,135.172,11.017,153.589-67.398c9.378-39.929-2.635-72.396-24.937-94.697
		c-4.802-4.802-10.081-9.133-15.726-12.965L982.372,1410.518z M1285.776,741.098c-98.327-98.328-277.829-143.672-468.862-47.419
		c28.97,80.307,40.251,116.743,53.702,131.034l39.886,42.377c18.878,20.057,42.162-4.854,128.198-10.902
		c46.702-3.256,82.732,7.457,107.225,25.901c13.987,35.008,5.969,77.229-26.148,111.517c-6.178,6.596-12.567,12.511-19.123,17.871
		c-55.943,45.741-124.104,51.137-178.297,95.446c-4.12,3.37-8.16,6.964-12.108,10.818c-34.097,33.289-30.054,68.927-41.007,184.043
		l39.927,28.065c285.819,67.13,63.925-26.388,264.697-114.94c220.014-96.935,252.393-257.854,180.769-376.339l-26.15-43.259
		C1316.815,776.001,1302.464,757.786,1285.776,741.098z"/>
	<g>
		<path style="fill:#9ccfd8;" d="M816.914,693.679c70.886,196.499,35.864,130.339,185.865,119.794
			c141.378-9.856,187.883,104.457,116.998,180.132c-62.907,67.161-147.579,63.655-209.528,124.135
			c-34.097,33.289-30.054,68.927-41.007,184.043c294.659,69.207,65.902-27.204,272.884-118.495
			C1616.034,974.491,1245.494,477.735,816.914,693.679z"/>
		<path style="fill:#9ccfd8;" d="M809.461,1471.052c-32.717,139.299,182.384,188.604,214.831,50.458
			C1056.643,1383.771,842.079,1332.177,809.461,1471.052z"/>
	</g>
	<g>
		<g>
			<path style="fill:#e0def4;" d="M926.109,1301.45c-20.403-3.787-45.636-9.225-77.142-16.62l-2.345-0.553l0.227-2.399
				c1.992-20.911,3.488-39.199,4.808-55.326l1.057-12.872l5.503,0.46l-1.057,12.861c-1.27,15.53-2.701,33.059-4.582,52.998
				c30.326,7.1,54.729,12.343,74.538,16.019L926.109,1301.45z M1030.825,1242.851l-5.107-2.115
				c12.771-30.823,44.058-56.868,95.65-79.62c68.122-30.013,121.681-67.273,159.193-110.74l4.179,3.611
				c-38.048,44.093-92.266,81.839-161.143,112.187C1073.369,1188.325,1043.021,1213.407,1030.825,1242.851z M1065.489,1006.675
				l-3.05-4.604c13.437-8.894,25.107-18.706,35.677-29.995c20.641-22.032,32.009-48.701,32.009-75.084
				c0-4.611-0.348-9.24-1.032-13.753l5.459-0.827c0.727,4.787,1.097,9.693,1.097,14.58c0,27.794-11.897,55.799-33.501,78.861
				C1091.279,987.458,1079.289,997.539,1065.489,1006.675z M1345.543,920.563l-5.496-0.597c0.817-7.534,1.23-15.203,1.23-22.791
				c0-39.634-11.339-79.991-32.789-116.708l4.768-2.784c21.946,37.558,33.545,78.879,33.545,119.492
				C1346.802,904.961,1346.378,912.831,1345.543,920.563z M869.532,815.742c-24.63,0-31.718-19.896-61.563-103.63
				c-3.989-11.189-8.387-23.533-13.292-37.134l5.193-1.878c4.909,13.612,9.312,25.96,13.304,37.156
				c28.787,80.771,35.623,99.962,56.358,99.962c7.236,0,16.191-2.187,28.588-5.219c19.306-4.715,45.748-11.174,84.824-13.922
				c15.429-1.09,30.445-0.705,44.324,1.133l-0.726,5.473c-13.505-1.78-28.154-2.147-43.209-1.097
				c-38.612,2.716-64.788,9.11-83.9,13.782C886.662,813.487,877.433,815.742,869.532,815.742z M897.804,638.455l-1.417-5.337
				c49.19-13.042,98.984-17.684,146.883-13.732l-0.454,5.503C995.55,620.994,946.382,625.579,897.804,638.455z"/>
		</g>
		<g>
			<path style="fill:#e0def4;" d="M901.379,1586.741c-57.857,0-117.7-40.144-117.7-107.32c0-9.251,1.162-18.886,3.449-28.639
				l5.38,1.259c-2.194,9.344-3.305,18.555-3.305,27.38c0,63.72,57.034,101.796,112.176,101.796
				c42.622,0,77.707-22.227,93.844-59.454l5.071,2.194C983.25,1563.27,946.275,1586.741,901.379,1586.741z M962.488,1394.06
				c-20.133-14.088-45.025-21.845-70.096-21.845c-24.604,0-46.906,7.369-64.501,21.313l-3.431-4.33
				c18.58-14.724,42.068-22.507,67.932-22.507c26.193,0,52.21,8.114,73.261,22.846L962.488,1394.06z"/>
		</g>
	</g>
</g>
</svg>
